<svg width="20.000000" height="20.000000" viewBox="0 0 20 20" fill="none" xmlns="http://www.w3.org/2000/svg" xmlns:xlink="http://www.w3.org/1999/xlink">
	<desc>
			Created with Pixso.
	</desc>
	<defs>
		<clipPath id="clip119_630">
			<rect id="COCO/Line/Clock" rx="0.000000" width="19.166666" height="19.166666" transform="translate(0.416667 0.416667)" fill="white" fill-opacity="0"/>
		</clipPath>
	</defs>
	<g clip-path="url(#clip119_630)">
		<path id="Vector" d="M2.79 7.45C3.33 5.14 5.14 3.33 7.45 2.79C9.13 2.4 10.86 2.4 12.54 2.79C14.85 3.33 16.66 5.14 17.2 7.45C17.59 9.13 17.59 10.86 17.2 12.54C16.66 14.85 14.85 16.66 12.54 17.2C10.86 17.59 9.13 17.59 7.45 17.2C5.14 16.66 3.33 14.85 2.79 12.54C2.4 10.86 2.4 9.13 2.79 7.45Z" stroke="#FFFFFF" stroke-opacity="1.000000" stroke-width="1.250000"/>
		<path id="Vector" d="M12.08 12.08L9.71 10.57L9.71 7.5" stroke="#FFFFFF" stroke-opacity="1.000000" stroke-width="1.250000" stroke-linejoin="round" stroke-linecap="round"/>
	</g>
</svg>
