<svg width="20.500000" height="20.500000" viewBox="0 0 20.5 20.5" fill="none" xmlns="http://www.w3.org/2000/svg" xmlns:xlink="http://www.w3.org/1999/xlink">
	<desc>
			Created with Pixso.
	</desc>
	<defs/>
	<path id="Vector" d="M2.14 18.35C0.75 16.96 0.75 14.72 0.75 10.25C0.75 5.77 0.75 3.53 2.14 2.14C3.53 0.75 5.77 0.75 10.25 0.75C14.72 0.75 16.96 0.75 18.35 2.14C19.75 3.53 19.75 5.77 19.75 10.25C19.75 14.72 19.75 16.96 18.35 18.35C16.96 19.75 14.72 19.75 10.25 19.75C5.77 19.75 3.53 19.75 2.14 18.35Z" stroke="#FFFFFF" stroke-opacity="1.000000" stroke-width="1.500000" stroke-linejoin="round"/>
	<path id="Ellipse 1794" d="M10.25 14.75C7.76 14.75 5.75 12.73 5.75 10.25C5.75 7.76 7.76 5.75 10.25 5.75C12.73 5.75 14.75 7.76 14.75 10.25C14.75 12.73 12.73 14.75 10.25 14.75Z" stroke="#FFFFFF" stroke-opacity="1.000000" stroke-width="1.500000"/>
	<path id="Vector" d="M15.75 4.75L15.74 4.75" stroke="#FFFFFF" stroke-opacity="1.000000" stroke-width="2.000000" stroke-linejoin="round" stroke-linecap="round"/>
</svg>
