<svg width="1440" height="6316" viewBox="0 0 1440 6316" fill="none" xmlns="http://www.w3.org/2000/svg">
<g clip-path="url(#clip0_293_312)">
<rect width="1440" height="6316" fill="white"/>
<g opacity="0.35">
<path fill-rule="evenodd" clip-rule="evenodd" d="M72 3808.31C177.658 3808.31 263.311 3722.66 263.311 3617C263.311 3511.34 177.658 3425.69 72 3425.69C-33.658 3425.69 -119.311 3511.34 -119.311 3617C-119.311 3722.66 -33.658 3808.31 72 3808.31ZM72 3980C272.479 3980 435 3817.48 435 3617C435 3416.52 272.479 3254 72 3254C-128.479 3254 -291 3416.52 -291 3617C-291 3817.48 -128.479 3980 72 3980Z" fill="url(#paint0_linear_293_312)" fill-opacity="0.2"/>
<circle cx="71.5" cy="3618.5" r="137.5" stroke="url(#paint1_linear_293_312)" stroke-width="2"/>
</g>
<g opacity="0.35">
<path fill-rule="evenodd" clip-rule="evenodd" d="M1332 4571.31C1437.66 4571.31 1523.31 4485.66 1523.31 4380C1523.31 4274.34 1437.66 4188.69 1332 4188.69C1226.34 4188.69 1140.69 4274.34 1140.69 4380C1140.69 4485.66 1226.34 4571.31 1332 4571.31ZM1332 4743C1532.48 4743 1695 4580.48 1695 4380C1695 4179.52 1532.48 4017 1332 4017C1131.52 4017 969 4179.52 969 4380C969 4580.48 1131.52 4743 1332 4743Z" fill="url(#paint2_linear_293_312)" fill-opacity="0.2"/>
<circle cx="1331.5" cy="4381.5" r="137.5" stroke="url(#paint3_linear_293_312)" stroke-width="2"/>
</g>
<g opacity="0.35">
<path fill-rule="evenodd" clip-rule="evenodd" d="M64 5493.31C169.658 5493.31 255.311 5407.66 255.311 5302C255.311 5196.34 169.658 5110.69 64 5110.69C-41.658 5110.69 -127.311 5196.34 -127.311 5302C-127.311 5407.66 -41.658 5493.31 64 5493.31ZM64 5665C264.479 5665 427 5502.48 427 5302C427 5101.52 264.479 4939 64 4939C-136.479 4939 -299 5101.52 -299 5302C-299 5502.48 -136.479 5665 64 5665Z" fill="url(#paint4_linear_293_312)" fill-opacity="0.2"/>
<circle cx="63.5" cy="5303.5" r="137.5" stroke="url(#paint5_linear_293_312)" stroke-width="2"/>
</g>
<g opacity="0.35">
<path fill-rule="evenodd" clip-rule="evenodd" d="M1416 3043.31C1521.66 3043.31 1607.31 2957.66 1607.31 2852C1607.31 2746.34 1521.66 2660.69 1416 2660.69C1310.34 2660.69 1224.69 2746.34 1224.69 2852C1224.69 2957.66 1310.34 3043.31 1416 3043.31ZM1416 3215C1616.48 3215 1779 3052.48 1779 2852C1779 2651.52 1616.48 2489 1416 2489C1215.52 2489 1053 2651.52 1053 2852C1053 3052.48 1215.52 3215 1416 3215Z" fill="url(#paint6_linear_293_312)" fill-opacity="0.2"/>
<circle cx="1415.5" cy="2853.5" r="137.5" stroke="url(#paint7_linear_293_312)" stroke-width="2"/>
</g>
<g opacity="0.35">
<path fill-rule="evenodd" clip-rule="evenodd" d="M1303 1550.31C1408.66 1550.31 1494.31 1464.66 1494.31 1359C1494.31 1253.34 1408.66 1167.69 1303 1167.69C1197.34 1167.69 1111.69 1253.34 1111.69 1359C1111.69 1464.66 1197.34 1550.31 1303 1550.31ZM1303 1722C1503.48 1722 1666 1559.48 1666 1359C1666 1158.52 1503.48 996 1303 996C1102.52 996 940 1158.52 940 1359C940 1559.48 1102.52 1722 1303 1722Z" fill="url(#paint8_linear_293_312)" fill-opacity="0.2"/>
<circle cx="1302.5" cy="1360.5" r="137.5" stroke="url(#paint9_linear_293_312)" stroke-width="2"/>
</g>
<g opacity="0.35">
<path fill-rule="evenodd" clip-rule="evenodd" d="M-72 2503.31C33.6581 2503.31 119.311 2417.66 119.311 2312C119.311 2206.34 33.6581 2120.69 -72 2120.69C-177.658 2120.69 -263.311 2206.34 -263.311 2312C-263.311 2417.66 -177.658 2503.31 -72 2503.31ZM-72 2675C128.479 2675 291 2512.48 291 2312C291 2111.52 128.479 1949 -72 1949C-272.479 1949 -435 2111.52 -435 2312C-435 2512.48 -272.479 2675 -72 2675Z" fill="url(#paint10_linear_293_312)" fill-opacity="0.2"/>
<circle cx="-72.5" cy="2313.5" r="137.5" stroke="url(#paint11_linear_293_312)" stroke-width="2"/>
</g>
<g opacity="0.35">
<path fill-rule="evenodd" clip-rule="evenodd" d="M-37 821.311C68.6581 821.311 154.311 735.658 154.311 630C154.311 524.342 68.6581 438.689 -37 438.689C-142.658 438.689 -228.311 524.342 -228.311 630C-228.311 735.658 -142.658 821.311 -37 821.311ZM-37 993C163.479 993 326 830.479 326 630C326 429.521 163.479 267 -37 267C-237.479 267 -400 429.521 -400 630C-400 830.479 -237.479 993 -37 993Z" fill="url(#paint12_linear_293_312)" fill-opacity="0.2"/>
<circle cx="-37.5" cy="631.5" r="137.5" stroke="url(#paint13_linear_293_312)" stroke-width="2"/>
</g>
</g>
<defs>
<linearGradient id="paint0_linear_293_312" x1="-312.476" y1="3325.29" x2="350.345" y2="3727.28" gradientUnits="userSpaceOnUse">
<stop stop-color="#252BD1"/>
<stop offset="1" stop-color="#1A1E8D" stop-opacity="0.61"/>
</linearGradient>
<linearGradient id="paint1_linear_293_312" x1="-75.1941" y1="3507.2" x2="177.701" y2="3660.57" gradientUnits="userSpaceOnUse">
<stop stop-color="#252BD1"/>
<stop offset="1" stop-color="#1A1E8D" stop-opacity="0.61"/>
</linearGradient>
<linearGradient id="paint2_linear_293_312" x1="947.524" y1="4088.29" x2="1610.35" y2="4490.28" gradientUnits="userSpaceOnUse">
<stop stop-color="#252BD1"/>
<stop offset="1" stop-color="#1A1E8D" stop-opacity="0.61"/>
</linearGradient>
<linearGradient id="paint3_linear_293_312" x1="1184.81" y1="4270.2" x2="1437.7" y2="4423.57" gradientUnits="userSpaceOnUse">
<stop stop-color="#252BD1"/>
<stop offset="1" stop-color="#1A1E8D" stop-opacity="0.61"/>
</linearGradient>
<linearGradient id="paint4_linear_293_312" x1="-320.476" y1="5010.29" x2="342.345" y2="5412.28" gradientUnits="userSpaceOnUse">
<stop stop-color="#252BD1"/>
<stop offset="1" stop-color="#1A1E8D" stop-opacity="0.61"/>
</linearGradient>
<linearGradient id="paint5_linear_293_312" x1="-83.1941" y1="5192.2" x2="169.701" y2="5345.57" gradientUnits="userSpaceOnUse">
<stop stop-color="#252BD1"/>
<stop offset="1" stop-color="#1A1E8D" stop-opacity="0.61"/>
</linearGradient>
<linearGradient id="paint6_linear_293_312" x1="1031.52" y1="2560.29" x2="1694.35" y2="2962.28" gradientUnits="userSpaceOnUse">
<stop stop-color="#252BD1"/>
<stop offset="1" stop-color="#1A1E8D" stop-opacity="0.61"/>
</linearGradient>
<linearGradient id="paint7_linear_293_312" x1="1268.81" y1="2742.2" x2="1521.7" y2="2895.57" gradientUnits="userSpaceOnUse">
<stop stop-color="#252BD1"/>
<stop offset="1" stop-color="#1A1E8D" stop-opacity="0.61"/>
</linearGradient>
<linearGradient id="paint8_linear_293_312" x1="918.524" y1="1067.29" x2="1581.35" y2="1469.28" gradientUnits="userSpaceOnUse">
<stop stop-color="#252BD1"/>
<stop offset="1" stop-color="#1A1E8D" stop-opacity="0.61"/>
</linearGradient>
<linearGradient id="paint9_linear_293_312" x1="1155.81" y1="1249.2" x2="1408.7" y2="1402.57" gradientUnits="userSpaceOnUse">
<stop stop-color="#252BD1"/>
<stop offset="1" stop-color="#1A1E8D" stop-opacity="0.61"/>
</linearGradient>
<linearGradient id="paint10_linear_293_312" x1="-456.476" y1="2020.29" x2="206.345" y2="2422.28" gradientUnits="userSpaceOnUse">
<stop stop-color="#252BD1"/>
<stop offset="1" stop-color="#1A1E8D" stop-opacity="0.61"/>
</linearGradient>
<linearGradient id="paint11_linear_293_312" x1="-219.194" y1="2202.2" x2="33.7005" y2="2355.57" gradientUnits="userSpaceOnUse">
<stop stop-color="#252BD1"/>
<stop offset="1" stop-color="#1A1E8D" stop-opacity="0.61"/>
</linearGradient>
<linearGradient id="paint12_linear_293_312" x1="-421.476" y1="338.292" x2="241.345" y2="740.276" gradientUnits="userSpaceOnUse">
<stop stop-color="#252BD1"/>
<stop offset="1" stop-color="#1A1E8D" stop-opacity="0.61"/>
</linearGradient>
<linearGradient id="paint13_linear_293_312" x1="-184.194" y1="520.201" x2="68.7005" y2="673.575" gradientUnits="userSpaceOnUse">
<stop stop-color="#252BD1"/>
<stop offset="1" stop-color="#1A1E8D" stop-opacity="0.61"/>
</linearGradient>
<clipPath id="clip0_293_312">
<rect width="1440" height="6316" fill="white"/>
</clipPath>
</defs>
</svg>
