<?xml version="1.0" encoding="utf-8"?>
<!-- Generator: Adobe Illustrator 22.1.0, SVG Export Plug-In . SVG Version: 6.00 Build 0)  -->
<svg version="1.1" id="Layer_1" xmlns="http://www.w3.org/2000/svg" xmlns:xlink="http://www.w3.org/1999/xlink" x="0px" y="0px"
	 viewBox="0 0 5000 1746" style="enable-background:new 0 0 5000 1746;" xml:space="preserve">
<style type="text/css">
	.st0{fill:#FFFFFF;}
</style>
<g>
	<path id="Path_2774" d="M4927,1454.2c1.7,78.8-60.8,144.1-139.6,145.8c-0.1,0-0.1,0-0.1,0H212.9c-78.9-1.6-141.5-66.9-139.9-145.8
		V291.8c-1.5-78.9,61.1-144.1,140-145.8h4574.3c78.8,1.7,141.4,67,139.8,145.8L4927,1454.2L4927,1454.2z"/>
	<g id="Group_3510">
		<g id="Group_3509">
			<path id="Path_2775" class="st0" d="M1138.9,864.5c0.9-72.4,38.9-139.4,100.6-177.3c-39.1-55.9-102.3-90-170.4-92.2
				c-71.7-7.5-141.3,42.9-177.8,42.9c-37.3,0-93.5-42.2-154.1-41c-79.8,2.6-152.3,46.9-191,116.7c-82.6,143-21,353.2,58.3,468.8
				c39.6,56.6,85.9,119.8,146.4,117.6c59.2-2.4,81.4-37.7,152.9-37.7c70.8,0,91.6,37.8,153.4,36.5c63.6-1,103.6-56.9,141.8-114
				c28.5-40.3,50.4-84.9,64.9-132.1C1188.1,1020.8,1138.9,946.7,1138.9,864.5L1138.9,864.5z"/>
			<path id="Path_2776" class="st0" d="M1022.2,519c34.7-41.6,51.8-95.1,47.6-149.1c-53,5.6-101.9,30.9-137,70.9
				c-34.7,39.5-52.3,91.2-48.8,143.6C937.7,584.9,988.6,560.8,1022.2,519L1022.2,519z"/>
		</g>
	</g>
	<g id="Group_3511">
		<path id="Path_2777" class="st0" d="M1996.3,1291.6h-82.8l-45.4-142.4h-157.7l-43.2,142.4h-80.6l156.2-484.9h96.5L1996.3,1291.6z
			 M1854.4,1089.3l-41-126.5c-4.3-12.9-12.5-43.4-24.4-91.4h-1.5c-4.9,20.7-12.6,51.1-23.1,91.4l-40.1,126.7L1854.4,1089.3z"/>
		<path id="Path_2778" class="st0" d="M2397.9,1112.6c2.8,51.5-14.5,102.1-48.2,141.1c-27.4,30.1-66.5,46.9-107.2,46
			c-39.8,3.2-78-15.9-99.4-49.6h-1.5v184.3h-77.8v-377.2c0-37.4-1-75.8-2.9-115.2h68.5l4.4,55.5h1.5
			c41.8-63.9,127.5-81.9,191.4-40.1c11.2,7.3,21.3,16.2,29.9,26.4C2385.5,1020.2,2400.1,1066,2397.9,1112.6L2397.9,1112.6z
			 M2318.7,1115.4c1.2-29.8-6.8-59.2-23-84.2c-15.3-22.3-40.8-35.3-67.7-34.6c-19.1,0-37.6,6.8-52.1,19.1
			c-15.6,12.7-26.4,30.4-30.6,50.1c-2.2,7.7-3.4,15.7-3.6,23.7v58.3c-0.6,23.7,7.7,46.7,23.4,64.5c15.3,17.4,37.6,27,60.8,26.2
			c27.1,1.1,52.8-11.6,68.4-33.8C2311.6,1178.3,2320.2,1147,2318.7,1115.4z"/>
		<path id="Path_2779" class="st0" d="M2800.3,1112.6c2.8,51.5-14.5,102.1-48.3,141.1c-27.4,30.1-66.5,46.9-107.2,46
			c-39.8,3.2-78-15.9-99.4-49.6h-1.5v184.3h-77.7v-377.2c0-37.4-1-75.8-2.9-115.2h68.4l4.4,55.5h1.5
			c41.8-63.9,127.5-81.9,191.5-40.1c11.2,7.3,21.2,16.2,29.8,26.3C2787.8,1020.2,2802.6,1066,2800.3,1112.6L2800.3,1112.6z
			 M2721.2,1115.4c1.2-29.8-6.9-59.2-23.1-84.2c-15.2-22.2-40.7-35.3-67.6-34.6c-19.1,0-37.6,6.7-52.2,19.1
			c-15.6,12.7-26.4,30.4-30.5,50.1c-2.1,7.7-3.3,15.7-3.6,23.7v58.3c-0.6,23.7,7.7,46.7,23.3,64.5c15.4,17.4,37.7,27,60.9,26.2
			c27.1,1.1,52.8-11.6,68.4-33.8C2714.1,1178.3,2722.7,1147,2721.2,1115.4L2721.2,1115.4z"/>
		<path id="Path_2780" class="st0" d="M3250.2,1155.7c1.3,38.3-14.5,75.2-43.1,100.8c-37.2,30.2-84.3,45.4-132.2,42.4
			c-44,2.1-87.6-8.4-125.8-30.3l18.1-64.7c33.8,20.6,72.8,31.3,112.4,31c24.4,1.5,48.6-5.5,68.4-19.8c16.1-12.8,25.2-32.5,24.4-53
			c0.4-18.6-6.9-36.6-20.2-49.7c-19.5-17-42.3-29.8-66.9-37.6c-85.1-31.6-127.5-78-127.4-139.1c-1-37.8,15.5-74,44.7-98.1
			c33.6-26.8,75.9-40.4,118.8-38.2c38-1.3,75.8,6.6,110.1,23l-19.4,63.4c-28.6-15.2-60.5-22.9-92.9-22.3c-23.1-1.4-45.9,5.8-64,20.2
			c-12.5,11.1-19.6,27-19.4,43.7c-0.3,18.4,7.9,35.9,22.2,47.4c21.3,16.3,45.1,29,70.5,37.8c34.9,12.3,66.4,32.5,92.1,59
			c20,23.4,30.6,53.4,29.6,84.1L3250.2,1155.7z"/>
		<path id="Path_2781" class="st0" d="M3507.2,1000.3h-85.7v169.9c0,43.2,15.1,64.8,45.4,64.7c11.6,0.2,23.2-1,34.5-3.6l2.1,59.1
			c-19.5,6.4-40,9.3-60.5,8.6c-26.9,1.5-53.2-8.7-72-28.1c-19.9-27.2-29.1-60.8-25.9-94.3v-176.3h-51v-58.3h51v-64.1l76.3-23.1v87.1
			h85.7v58.3L3507.2,1000.3z"/>
		<path id="Path_2782" class="st0" d="M3893.7,1114c1.9,48.4-14.5,95.7-46.1,132.5c-32.8,35.8-79.7,55.3-128.2,53.2
			c-46.4,2.1-91.4-16.6-122.6-51c-31-35.6-47.4-81.6-45.7-128.8c-2-48.8,14.9-96.5,47.1-133.1c32.7-35.1,79.1-54.1,127-51.8
			c46.8-2,92.1,16.7,124,51C3879.8,1021.3,3895.7,1067.2,3893.7,1114L3893.7,1114z M3813.1,1116.5c0.9-29.1-6.4-57.8-20.9-83.1
			c-13.3-26.2-40.4-42.4-69.8-41.9c-29.8-0.8-57.5,15.5-71.3,41.9c-14.6,25.7-21.8,54.9-20.8,84.4c-0.9,29.1,6.4,57.8,20.8,83
			c20.8,38.7,69,53.1,107.6,32.3c14-7.5,25.3-19,32.7-33.1C3806.3,1174.8,3813.8,1145.9,3813.1,1116.5L3813.1,1116.5z"/>
		<path id="Path_2783" class="st0" d="M4146.3,1010.3c-8.1-1.5-16.2-2.2-24.4-2.2c-25-1.2-49,10.5-63.4,31
			c-13.6,20.5-20.4,44.7-19.4,69.3v183.3h-77.7l0.7-239.7c0-40.3-1-77-2.9-110.1h67.7l2.8,66.9h2.2c7.3-21.8,20.8-41.1,38.8-55.4
			c16.2-12.1,35.9-18.7,56.1-18.7c6.5,0,13,0.5,19.5,1.5v74.1L4146.3,1010.3z"/>
		<path id="Path_2784" class="st0" d="M4494,1100.3c0.2,11.8-0.8,23.6-2.8,35.3h-233.3c-1,30.1,11.4,59.1,33.8,79.2
			c21.7,17,48.7,25.6,76.3,24.4c32.2,0.4,64.2-5.2,94.3-16.5l12.2,54c-37.2,15.2-77.1,22.5-117.3,21.6
			c-47.4,2.6-93.8-14.7-127.8-47.9c-32.1-34.9-48.8-81.2-46.4-128.5c-1.7-47.7,13.6-94.4,43.2-131.7c29.5-37.1,74.9-58,122.3-56.1
			c45.3-2.5,88.7,18.8,114.5,56.1C4484.4,1022.7,4495.3,1061.2,4494,1100.3L4494,1100.3z M4419.9,1080.2c1-21-4.2-41.8-15.1-59.8
			c-13.1-21.5-36.9-33.9-62-32.4c-24.7-0.5-47.9,11.4-62,31.7c-13.3,17.6-21.3,38.5-23,60.4h161.9L4419.9,1080.2z"/>
	</g>
	<g id="Group_3513">
		<g id="Group_3512">
			<path id="Path_2785" class="st0" d="M1828.7,508.2c2.6,36.5-11.6,72.2-38.6,96.9c-29.2,21.7-65.2,32.4-101.5,30
				c-18.7,0.2-37.4-0.8-55.9-2.8V397.9c21.8-3.4,43.8-5.1,65.8-5c33.7-2.5,67.2,7.2,94.4,27.2
				C1817.6,442.5,1830.7,474.9,1828.7,508.2L1828.7,508.2z M1788.6,509.2c1.6-23.4-6.4-46.5-22.1-64c-17.6-15.9-40.9-23.9-64.5-22.2
				c-10.3-0.2-20.6,0.6-30.8,2.4v178.2c8.6,0.9,17.2,1.3,25.8,1.1c25,1.6,49.5-7.3,67.7-24.4c17-19.6,25.6-45.2,23.7-71.1
				L1788.6,509.2z"/>
			<path id="Path_2786" class="st0" d="M2042.4,545.6c0.9,23.8-7.2,47-22.7,65.1c-16.1,17.6-39.1,27.2-63,26.2
				c-22.8,1-44.9-8.2-60.3-25.2c-15.2-17.5-23.2-40.1-22.4-63.3c-1-24,7.3-47.4,23.1-65.4c16-17.3,38.9-26.6,62.4-25.5
				c23-0.9,45.2,8.3,60.8,25.2C2035.4,500.1,2043.3,522.7,2042.4,545.6L2042.4,545.6z M2002.7,546.9c0.4-14.3-3.1-28.4-10.2-40.8
				c-6.6-12.8-19.8-20.8-34.3-20.6c-14.7-0.4-28.3,7.6-35.1,20.6c-7.2,12.6-10.7,27-10.2,41.5c-0.4,14.3,3.1,28.4,10.2,40.8
				c6.8,12.8,20.2,20.7,34.6,20.5c14.5,0.1,27.7-8,34.3-20.9C1999.4,575.6,2003.1,561.3,2002.7,546.9L2002.7,546.9z"/>
			<path id="Path_2787" class="st0" d="M2328.8,461.1L2275,633h-35l-22.2-74.6c-5.6-18.3-10.2-36.8-13.8-55.5h-0.7
				c-3.3,18.8-7.9,37.4-13.8,55.5l-23.7,74.6h-35.4l-50.6-171.9h39.3l19.4,81.7c4.7,19.3,8.6,37.7,11.7,55.2h0.7
				c2.8-14.3,7.5-32.6,14.2-54.7l24.4-82h31.2l23.3,80.2c5.7,19.6,10.3,38.4,13.8,56.6h1c2.9-19.1,6.8-37.9,11.7-56.6l20.8-80.2
				h37.5L2328.8,461.1z"/>
			<path id="Path_2788" class="st0" d="M2526.9,633h-38.3v-98.4c0-30.3-11.6-45.5-34.6-45.5c-10.6-0.3-20.8,4.3-27.6,12.5
				c-7,8.2-10.8,18.7-10.6,29.5v102.1h-38.4V510.2c0-15.1-0.5-31.5-1.4-49.2h33.5l1.8,26.9h1.1c4.6-8.5,11.5-15.7,19.8-20.8
				c10.4-6.4,22.4-9.8,34.6-9.6c14.9-0.5,29.4,5.1,40.1,15.6c14.2,15.4,21.4,36,19.8,56.9L2526.9,633z"/>
			<path id="Path_2789" class="st0" d="M2632.2,633H2594V382.3h38.2L2632.2,633z"/>
			<path id="Path_2790" class="st0" d="M2857.1,545.6c0.9,23.8-7.1,47-22.6,65.1c-16.1,17.6-39.2,27.2-63,26.2
				c-22.8,1-45-8.2-60.3-25.2c-15.2-17.5-23.2-40.1-22.4-63.3c-1-24,7.4-47.4,23.2-65.4c16-17.2,38.8-26.6,62.3-25.5
				c23-0.9,45.3,8.3,60.9,25.2C2850.3,500.1,2858.1,522.6,2857.1,545.6L2857.1,545.6z M2817.5,546.9c0.4-14.3-3.1-28.4-10.2-40.8
				c-6.6-12.9-19.8-20.8-34.3-20.6c-14.6-0.4-28.2,7.6-35,20.6c-7.2,12.6-10.8,27-10.3,41.5c-0.4,14.3,3.1,28.4,10.2,40.8
				c6.8,12.8,20.2,20.8,34.7,20.5c14.5,0.1,27.8-8,34.3-20.9C2814.2,575.6,2817.9,561.3,2817.5,546.9L2817.5,546.9z"/>
			<path id="Path_2791" class="st0" d="M3042,633h-34.3l-2.9-19.8h-1c-11.7,15.8-30.6,24.7-50.2,23.7c-14.7,0.6-29-5-39.2-15.6
				c-9-9.4-13.8-22-13.5-35c-0.7-19.7,9.4-38.2,26.4-48.1c22.7-12.3,48.4-17.9,74.1-16.2v-3.2c0-22.7-11.9-33.9-35.7-33.9
				c-15.8-0.3-31.4,4.1-44.8,12.7l-7.6-25.1c17.9-10.4,38.3-15.5,59-14.8c44.9,0,67.4,23.7,67.4,71.1V592
				C3039.4,605.7,3040.2,619.4,3042,633L3042,633z M3002.4,573.9v-26.5c-42.1-0.7-63.2,10.8-63.2,34.6c-0.6,7.5,2.1,14.8,7.3,20.2
				c5.1,4.5,11.8,6.9,18.7,6.7c8.4,0,16.6-2.8,23.3-7.9C2997.3,594.7,3002.5,584.6,3002.4,573.9L3002.4,573.9z"/>
			<path id="Path_2792" class="st0" d="M3259.2,633h-33.9l-1.8-27.6h-1c-10.3,20.7-32.1,33.1-55.2,31.5
				c-20.1,0.3-39.1-8.7-51.6-24.4c-14.2-17.9-21.5-40.4-20.5-63.3c-1.1-24.5,6.9-48.6,22.4-67.6c13.2-15.5,32.7-24.3,53-24.1
				c19.2-1.9,37.9,7.1,48.4,23.3h0.7v-98.7h38.3v204.4C3257.9,603.4,3258.3,618.8,3259.2,633L3259.2,633z M3219.6,560.5v-28.7
				c0.1-4-0.3-8.1-1.1-12c-2-9-6.9-17.1-13.8-23.2c-7-6.2-16.1-9.6-25.5-9.4c-13.4-0.4-26,6-33.6,17c-8.6,12.8-12.9,28.1-12.2,43.5
				c-0.7,14.7,3.4,29.2,11.7,41.4c7.5,10.9,20.1,17.3,33.4,17c11.7,0.4,23-4.9,30.2-14.1C3216,583.2,3219.9,572,3219.6,560.5
				L3219.6,560.5z"/>
			<path id="Path_2793" class="st0" d="M3585.9,545.6c0.9,23.8-7.1,47-22.6,65.1c-16.1,17.6-39.2,27.2-63,26.2
				c-22.8,1-44.9-8.2-60.3-25.2c-15.2-17.5-23.2-40.1-22.4-63.3c-1-24,7.4-47.4,23.2-65.4c16.1-17.3,38.9-26.6,62.4-25.5
				c23-0.9,45.2,8.3,60.8,25.2C3579,500.1,3586.8,522.7,3585.9,545.6L3585.9,545.6z M3546.3,546.9c0.4-14.3-3.1-28.4-10.2-40.8
				c-6.6-12.9-19.9-20.8-34.3-20.6c-14.6-0.4-28.2,7.6-35,20.6c-7.2,12.6-10.7,27-10.2,41.5c-0.4,14.3,3.1,28.4,10.2,40.8
				c10.1,19,33.8,26.2,52.8,16c6.9-3.7,12.6-9.4,16.2-16.4C3543.1,575.6,3546.8,561.3,3546.3,546.9L3546.3,546.9z"/>
			<path id="Path_2794" class="st0" d="M3791.3,633h-38.2v-98.4c0-30.3-11.6-45.5-34.6-45.5c-10.6-0.3-20.8,4.3-27.6,12.5
				c-7,8.2-10.8,18.7-10.6,29.5v102.1H3642V510.2c0-15.1-0.4-31.5-1.3-49.2h33.5l1.8,26.9h1c4.7-8.5,11.5-15.7,19.8-20.8
				c10.4-6.4,22.4-9.8,34.6-9.6c14.9-0.5,29.4,5.1,40.1,15.6c14.2,15.4,21.4,36,19.8,56.9L3791.3,633z"/>
			<path id="Path_2795" class="st0" d="M4048.5,489.6h-42.1v83.5c0,21.2,7.5,31.8,22.2,31.8c5.7,0.1,11.5-0.5,17.1-1.8l1,29.2
				c-9.6,3.2-19.6,4.6-29.7,4.3c-13.2,0.8-26.1-4.2-35.4-13.7c-9.8-13.3-14.3-29.8-12.8-46.3v-86.9h-25.1v-28.4h25.2v-31.5
				l37.4-11.3v42.8h42.1L4048.5,489.6L4048.5,489.6z"/>
			<path id="Path_2796" class="st0" d="M4250.8,633h-38.3v-97.7c0-30.8-11.5-46.2-34.6-46.2c-16.9-0.6-32,10.5-36.5,26.8
				c-1.3,4.5-1.9,9.1-1.8,13.7v103.4h-38.1V382.3h38.2v103.7h0.7c10.8-18.1,30.5-29,51.6-28.3c14.7-0.5,28.9,5.2,39.3,15.6
				c14,15.8,21,36.6,19.5,57.6L4250.8,633L4250.8,633z"/>
			<path id="Path_2797" class="st0" d="M4459.4,538.9c0.1,5.8-0.4,11.6-1.5,17.3h-114.6c-0.5,14.8,5.6,29,16.6,38.9
				c10.7,8.4,24,12.6,37.5,12c15.8,0.2,31.5-2.6,46.3-8.1l6,26.5c-18.3,7.4-37.9,11-57.7,10.6c-23.3,1.3-46-7.2-62.7-23.5
				c-15.8-17.1-24-39.8-22.8-63.1c-0.8-23.4,6.7-46.4,21.3-64.7c14.5-18.3,36.8-28.5,60.1-27.6c22.2-1.2,43.5,9.2,56.1,27.6
				C4454.7,500.8,4460.1,519.7,4459.4,538.9L4459.4,538.9z M4422.9,529.1c0.6-10.3-2-20.5-7.3-29.4c-6.4-10.5-18.1-16.6-30.4-15.9
				c-12.1-0.2-23.5,5.7-30.4,15.6c-6.5,8.6-10.4,18.9-11.4,29.7L4422.9,529.1L4422.9,529.1z"/>
		</g>
	</g>
</g>
</svg>
